# Blender 4.0.2
# www.blender.org
mtllib obj1.mtl
o Cube
v 1.000000 1.000000 -1.000000
v 1.000000 -1.000000 -1.000000
v 0.386962 0.386962 2.848665
v 0.386962 -0.386962 2.848665
v -0.386962 0.386962 2.848665
v -0.386962 -0.386962 2.848665
v 1.000000 1.000000 1.000000
v 1.000000 -1.000000 1.000000
v -0.386962 -0.386962 1.000000
v -0.386962 0.386962 1.000000
v 0.386962 0.386962 1.000000
v 0.386962 -0.386962 1.000000
v -1.000000 0.280308 -0.280308
v -0.280308 1.000000 -1.000000
v -1.000000 -0.280308 -0.280308
v -0.280308 -1.000000 -1.000000
v -0.280308 -1.000000 1.000000
v -1.000000 -0.280308 0.280308
v -0.280308 1.000000 1.000000
v -1.000000 0.280308 0.280308
vn -0.0000 -1.0000 -0.0000
vn -0.0000 -0.0000 1.0000
vn -0.0000 1.0000 -0.0000
vn -0.0000 -0.0000 -1.0000
vn 1.0000 -0.0000 -0.0000
vn -1.0000 -0.0000 -0.0000
vn -0.7071 -0.7071 -0.0000
vn -0.7071 -0.0000 0.7071
vn -0.7071 -0.0000 -0.7071
vn -0.7071 0.7071 -0.0000
vt 0.214962 0.500000
vt 0.375000 0.500000
vt 0.375000 0.750000
vt 0.214962 0.750000
vt 0.451630 0.826630
vt 0.548370 0.826630
vt 0.548370 0.923370
vt 0.451630 0.923370
vt 0.625000 0.500000
vt 0.785038 0.500000
vt 0.785038 0.750000
vt 0.625000 0.750000
vt 0.625000 0.910038
vt 0.375000 0.910038
vt 0.464962 0.089962
vt 0.535038 0.089962
vt 0.535038 0.160038
vt 0.464962 0.160038
vt 0.375000 0.910038
vt 0.375000 0.250000
vt 0.375000 0.000000
vt 0.625000 0.000000
vt 0.625000 0.339962
vt 0.375000 0.339962
vt 0.625000 0.250000
s 0
usemtl Material
f 16/1/1 2/2/1 8/3/1 17/4/1
f 4/5/2 3/6/2 5/7/2 6/8/2
f 1/9/3 14/10/3 19/11/3 7/12/3
f 9/8/4 10/7/4 19/13/4 17/14/4
f 2/2/5 1/9/5 7/12/5 8/3/5
f 18/15/6 20/16/6 13/17/6 15/18/6
f 12/5/2 9/8/2 17/19/2 8/3/2
f 11/6/2 12/5/2 8/3/2 7/12/2
f 10/7/2 11/6/2 7/12/2 19/13/2
f 6/8/6 5/7/6 10/7/6 9/8/6
f 3/6/5 4/5/5 12/5/5 11/6/5
f 5/7/3 3/6/3 11/6/3 10/7/3
f 4/5/1 6/8/1 9/8/1 12/5/1
f 16/20/7 17/21/7 18/15/7 15/18/7
f 17/21/8 19/22/8 20/16/8 18/15/8
f 14/23/9 16/24/9 15/18/9 13/17/9
f 19/22/10 14/25/10 13/17/10 20/16/10
f 16/24/4 14/23/4 1/9/4 2/2/4
