# Blender 4.0.2
# www.blender.org
mtllib obj2.mtl
o Cube
v 1.137116 1.137116 -1.137116
v 1.137116 -1.137116 -1.137116
v 1.137116 1.137116 1.137116
v 1.137116 -1.137116 1.137116
v -1.137116 1.137116 -1.137116
v -1.137116 -1.137116 -1.137116
v -1.137116 1.137116 1.137116
v -1.137116 -1.137116 1.137116
v 1.269386 1.137116 -0.987282
v 1.269386 -1.137116 -0.987282
v 0.987282 1.137116 1.269386
v 0.987282 -1.137116 1.269386
v -0.987282 1.137116 -1.269386
v -0.987282 -1.137116 -1.269386
v -1.269386 1.137116 0.987282
v -1.269386 -1.137116 0.987282
v 1.382048 1.137116 -0.822197
v 1.382048 -1.137116 -0.822197
v 0.822197 1.137116 1.382048
v 0.822197 -1.137116 1.382048
v -0.822197 1.137116 -1.382048
v -0.822197 -1.137116 -1.382048
v -1.382048 1.137116 0.822197
v -1.382048 -1.137116 0.822197
v 1.473362 1.137116 -0.644413
v 1.473362 -1.137116 -0.644413
v 0.644413 1.137116 1.473362
v 0.644413 -1.137116 1.473362
v -0.644413 1.137116 -1.473362
v -0.644413 -1.137116 -1.473362
v -1.473362 1.137116 0.644413
v -1.473362 -1.137116 0.644413
v 1.541919 1.137116 -0.456675
v 1.541919 -1.137116 -0.456675
v 0.456675 1.137116 1.541919
v 0.456675 -1.137116 1.541919
v -0.456675 1.137116 -1.541919
v -0.456675 -1.137116 -1.541919
v -1.541919 1.137116 0.456675
v -1.541919 -1.137116 0.456675
v 1.586658 1.137116 -0.261883
v 1.586658 -1.137116 -0.261883
v 0.261883 1.137116 1.586658
v 0.261883 -1.137116 1.586658
v -0.261883 1.137116 -1.586658
v -0.261883 -1.137116 -1.586658
v -1.586658 1.137116 0.261883
v -1.586658 -1.137116 0.261883
v 1.606888 1.137116 -0.063045
v 1.606888 -1.137116 -0.063045
v 0.063045 1.137116 1.606888
v 0.063045 -1.137116 1.606888
v -0.063045 1.137116 -1.606888
v -0.063045 -1.137116 -1.606888
v -1.606888 1.137116 0.063045
v -1.606888 -1.137116 0.063045
v 1.602298 1.137116 0.136766
v 1.602298 -1.137116 0.136766
v -0.136766 1.137116 1.602298
v -0.136766 -1.137116 1.602298
v 0.136766 1.137116 -1.602298
v 0.136766 -1.137116 -1.602298
v -1.602298 1.137116 -0.136766
v -1.602298 -1.137116 -0.136766
v 1.572959 1.137116 0.334465
v 1.572959 -1.137116 0.334465
v -0.334465 1.137116 1.572959
v -0.334465 -1.137116 1.572959
v 0.334465 1.137116 -1.572959
v 0.334465 -1.137116 -1.572959
v -1.572959 1.137116 -0.334465
v -1.572959 -1.137116 -0.334465
v 1.519322 1.137116 0.526997
v 1.519322 -1.137116 0.526997
v -0.526997 1.137116 1.519322
v -0.526997 -1.137116 1.519322
v 0.526997 1.137116 -1.519322
v 0.526997 -1.137116 -1.519322
v -1.519322 1.137116 -0.526997
v -1.519322 -1.137116 -0.526997
v 1.442218 1.137116 0.711389
v 1.442218 -1.137116 0.711389
v -0.711389 1.137116 1.442218
v -0.711389 -1.137116 1.442218
v 0.711389 1.137116 -1.442218
v 0.711389 -1.137116 -1.442218
v -1.442218 1.137116 -0.711389
v -1.442218 -1.137116 -0.711389
v 1.342836 1.137116 0.884793
v 1.342836 -1.137116 0.884793
v -0.884793 1.137116 1.342836
v -0.884793 -1.137116 1.342836
v 0.884793 1.137116 -1.342836
v 0.884793 -1.137116 -1.342836
v -1.342836 1.137116 -0.884793
v -1.342836 -1.137116 -0.884793
v 1.222712 1.137116 1.044530
v 1.222712 -1.137116 1.044530
v -1.044530 1.137116 1.222712
v -1.044530 -1.137116 1.222712
v 1.044530 1.137116 -1.222712
v 1.044530 -1.137116 -1.222712
v -1.222712 1.137116 -1.044530
v -1.222712 -1.137116 -1.044530
vn -0.0000 -1.0000 -0.0000
vn -0.0000 -0.0000 -1.0000
vn 1.0000 -0.0000 -0.0000
vn -0.0000 1.0000 -0.0000
vn -1.0000 -0.0000 -0.0000
vn -0.0000 -0.0000 1.0000
vn 0.1240 -0.0000 -0.9923
vn 0.9923 -0.0000 0.1240
vn -0.9923 -0.0000 -0.1240
vn -0.1240 -0.0000 0.9923
vn 0.2462 -0.0000 -0.9692
vn 0.9692 -0.0000 0.2462
vn -0.9692 -0.0000 -0.2462
vn -0.2462 -0.0000 0.9692
vn 0.3645 -0.0000 -0.9312
vn 0.9312 -0.0000 0.3645
vn -0.9312 -0.0000 -0.3645
vn -0.3645 -0.0000 0.9312
vn 0.4772 -0.0000 -0.8788
vn 0.8788 -0.0000 0.4772
vn -0.8788 -0.0000 -0.4772
vn -0.4772 -0.0000 0.8788
vn 0.5825 -0.0000 -0.8128
vn 0.8128 -0.0000 0.5825
vn -0.8128 -0.0000 -0.5825
vn -0.5825 -0.0000 0.8128
vn 0.6788 -0.0000 -0.7343
vn 0.7343 -0.0000 0.6788
vn -0.7343 -0.0000 -0.6788
vn -0.6788 -0.0000 0.7343
vn 0.7647 -0.0000 -0.6444
vn 0.6444 -0.0000 0.7647
vn -0.6444 -0.0000 -0.7647
vn -0.7647 -0.0000 0.6444
vn 0.8387 -0.0000 -0.5446
vn 0.5446 -0.0000 0.8387
vn -0.5446 -0.0000 -0.8387
vn -0.8387 -0.0000 0.5446
vn 0.8998 -0.0000 -0.4363
vn 0.4363 -0.0000 0.8998
vn -0.4363 -0.0000 -0.8998
vn -0.8998 -0.0000 0.4363
vn 0.9470 -0.0000 -0.3214
vn 0.3214 -0.0000 0.9470
vn -0.3214 -0.0000 -0.9470
vn -0.9470 -0.0000 0.3214
vn 0.9795 -0.0000 -0.2014
vn 0.2014 -0.0000 0.9795
vn -0.2014 -0.0000 -0.9795
vn -0.9795 -0.0000 0.2014
vn -0.9969 -0.0000 0.0783
vn -0.0783 -0.0000 -0.9969
vn 0.0783 -0.0000 0.9969
vn 0.9969 -0.0000 -0.0783
vt 0.625000 0.500000
vt 0.625000 0.750000
vt 0.875000 0.750000
vt 0.875000 0.500000
vt 0.375000 0.750000
vt 0.375000 1.000000
vt 0.625000 1.000000
vt 0.375000 0.000000
vt 0.375000 0.250000
vt 0.625000 0.250000
vt 0.625000 0.000000
vt 0.125000 0.500000
vt 0.125000 0.750000
vt 0.375000 0.500000
s 0
usemtl Material
f 1/1/1 3/2/1 7/3/1 5/4/1
f 4/5/2 8/6/2 7/7/2 3/2/2
f 8/8/3 6/9/3 5/10/3 7/11/3
f 6/12/4 8/13/4 4/5/4 2/14/4
f 2/14/5 4/5/5 3/2/5 1/1/5
f 6/9/6 2/14/6 1/1/6 5/10/6
f 9/1/1 11/2/1 15/3/1 13/4/1
f 12/5/7 16/6/7 15/7/7 11/2/7
f 16/8/8 14/9/8 13/10/8 15/11/8
f 14/12/4 16/13/4 12/5/4 10/14/4
f 10/14/9 12/5/9 11/2/9 9/1/9
f 14/9/10 10/14/10 9/1/10 13/10/10
f 17/1/1 19/2/1 23/3/1 21/4/1
f 20/5/11 24/6/11 23/7/11 19/2/11
f 24/8/12 22/9/12 21/10/12 23/11/12
f 22/12/4 24/13/4 20/5/4 18/14/4
f 18/14/13 20/5/13 19/2/13 17/1/13
f 22/9/14 18/14/14 17/1/14 21/10/14
f 25/1/1 27/2/1 31/3/1 29/4/1
f 28/5/15 32/6/15 31/7/15 27/2/15
f 32/8/16 30/9/16 29/10/16 31/11/16
f 30/12/4 32/13/4 28/5/4 26/14/4
f 26/14/17 28/5/17 27/2/17 25/1/17
f 30/9/18 26/14/18 25/1/18 29/10/18
f 33/1/1 35/2/1 39/3/1 37/4/1
f 36/5/19 40/6/19 39/7/19 35/2/19
f 40/8/20 38/9/20 37/10/20 39/11/20
f 38/12/4 40/13/4 36/5/4 34/14/4
f 34/14/21 36/5/21 35/2/21 33/1/21
f 38/9/22 34/14/22 33/1/22 37/10/22
f 41/1/1 43/2/1 47/3/1 45/4/1
f 44/5/23 48/6/23 47/7/23 43/2/23
f 48/8/24 46/9/24 45/10/24 47/11/24
f 46/12/4 48/13/4 44/5/4 42/14/4
f 42/14/25 44/5/25 43/2/25 41/1/25
f 46/9/26 42/14/26 41/1/26 45/10/26
f 49/1/1 51/2/1 55/3/1 53/4/1
f 52/5/27 56/6/27 55/7/27 51/2/27
f 56/8/28 54/9/28 53/10/28 55/11/28
f 54/12/4 56/13/4 52/5/4 50/14/4
f 50/14/29 52/5/29 51/2/29 49/1/29
f 54/9/30 50/14/30 49/1/30 53/10/30
f 57/1/1 59/2/1 63/3/1 61/4/1
f 60/5/31 64/6/31 63/7/31 59/2/31
f 64/8/32 62/9/32 61/10/32 63/11/32
f 62/12/4 64/13/4 60/5/4 58/14/4
f 58/14/33 60/5/33 59/2/33 57/1/33
f 62/9/34 58/14/34 57/1/34 61/10/34
f 65/1/1 67/2/1 71/3/1 69/4/1
f 68/5/35 72/6/35 71/7/35 67/2/35
f 72/8/36 70/9/36 69/10/36 71/11/36
f 70/12/4 72/13/4 68/5/4 66/14/4
f 66/14/37 68/5/37 67/2/37 65/1/37
f 70/9/38 66/14/38 65/1/38 69/10/38
f 73/1/1 75/2/1 79/3/1 77/4/1
f 76/5/39 80/6/39 79/7/39 75/2/39
f 80/8/40 78/9/40 77/10/40 79/11/40
f 78/12/4 80/13/4 76/5/4 74/14/4
f 74/14/41 76/5/41 75/2/41 73/1/41
f 78/9/42 74/14/42 73/1/42 77/10/42
f 81/1/1 83/2/1 87/3/1 85/4/1
f 84/5/43 88/6/43 87/7/43 83/2/43
f 88/8/44 86/9/44 85/10/44 87/11/44
f 86/12/4 88/13/4 84/5/4 82/14/4
f 82/14/45 84/5/45 83/2/45 81/1/45
f 86/9/46 82/14/46 81/1/46 85/10/46
f 89/1/1 91/2/1 95/3/1 93/4/1
f 92/5/47 96/6/47 95/7/47 91/2/47
f 96/8/48 94/9/48 93/10/48 95/11/48
f 94/12/4 96/13/4 92/5/4 90/14/4
f 90/14/49 92/5/49 91/2/49 89/1/49
f 94/9/50 90/14/50 89/1/50 93/10/50
f 97/1/4 101/4/4 103/3/4 99/2/4
f 100/5/51 99/2/51 103/7/51 104/6/51
f 104/8/52 103/11/52 101/10/52 102/9/52
f 102/12/1 98/14/1 100/5/1 104/13/1
f 98/14/53 97/1/53 99/2/53 100/5/53
f 102/9/54 101/10/54 97/1/54 98/14/54
