# Blender 4.0.2
# www.blender.org
mtllib roof.mtl
o Cube
v 3.550981 1.000000 -1.853782
v 3.550981 -1.000000 -4.005773
v 3.550981 1.000000 1.854040
v 3.550981 -1.000000 4.005773
v -0.948280 1.000000 -1.853782
v -3.550981 -1.000000 -4.005773
v -0.948280 1.000000 1.854040
v -3.550981 -1.000000 4.005773
vn -0.0000 1.0000 -0.0000
vn -0.0000 0.7325 0.6808
vn -0.6093 0.7929 -0.0000
vn -0.0000 -1.0000 -0.0000
vn 1.0000 -0.0000 -0.0000
vn -0.0000 0.7325 -0.6808
vt 0.990616 0.999918
vt 0.000000 0.999918
vt 0.000000 0.000000
vt 0.990616 0.000000
vt 0.666584 0.992208
vt 0.666584 0.004692
vt 0.999918 0.004692
vt 0.999918 0.992208
vt 0.998409 0.336434
vt 0.333333 0.333333
vt 0.333333 0.000000
vt 0.998409 0.003100
vt 0.998409 0.669767
vt 0.333333 0.666667
vt 0.333333 0.333333
vt 0.000000 1.000000
vt 0.000000 0.666667
vt 0.333333 1.000000
vt 0.998409 1.003100
s 0
usemtl Material
f 1/1/1 5/2/1 7/3/1 3/4/1
f 4/5/2 3/6/2 7/7/2 8/8/2
f 8/9/3 7/10/3 5/11/3 6/12/3
f 6/9/4 2/13/4 4/14/4 8/15/4
f 2/16/5 1/17/5 3/14/5 4/18/5
f 6/18/6 5/14/6 1/13/6 2/19/6
